<?xml version="1.0" encoding="utf-8"?>
<!-- Generator: Adobe Illustrator 24.1.3, SVG Export Plug-In . SVG Version: 6.00 Build 0)  -->
<svg version="1.1" id="Layer_1" xmlns="http://www.w3.org/2000/svg" xmlns:xlink="http://www.w3.org/1999/xlink" x="0px" y="0px"
	 viewBox="0 0 256 256" style="enable-background:new 0 0 256 256;" xml:space="preserve">
<style type="text/css">
	.st0{fill:#FFFFFF;}
</style>
<path class="st0" d="M236.8,64.9c-7.3,0.1-13.1,5.9-13.2,13.2c0,4.7,2.4,9,6.4,11.5l-8.5,26.4c-1.4-0.4-2.8-0.8-4.3-1l-5.3-20.4
	c6.6-3.4,9.1-11.5,5.7-18.1s-11.5-9.1-18.1-5.7s-9.1,11.5-5.7,18.1c2.3,4.4,6.7,7.1,11.7,7.2h0.3l5.1,19.1
	c-8.4,2-15.3,9.9-21.6,17.1c-6.3,7.2-14,15.8-22.4,17.1c-2-22.9-9.7-41-22.9-54c-21.6-20.9-49.3-20.6-50.3-20.6
	c-33.2,0.1-60,26.9-60.1,60.1c0,11.4,4.5,22.2,12.5,30.3C25.2,171.3,12,178.4,6.6,186c-1,1.4-0.7,3.4,0.7,4.5
	c0.5,0.4,1.2,0.6,1.8,0.6h213.4c1.6-0.1,2.9-1.2,3.1-2.8c0.2-1.6-0.8-3.1-2.3-3.6c-5.3-1.5-13.7-5.3-15.5-8.9
	c-0.3-0.6-0.3-1.2,0-1.8c0.8-1.8,3.8-5.6,7.1-9.4c8.7-10.2,20.4-24.4,18.8-35.6c-0.6-4.2-3-8-6.6-10.2h-0.3l8.9-27.5h1
	c7.3,0,13.2-5.9,13.2-13.2s-5.9-13.2-13.2-13.2L236.8,64.9z M198.3,82.9c0-3.9,3.2-7.1,7.1-7.1l0,0c3.9,0,7,3.1,7,7s-3.1,7-7,7
	C201.6,89.8,198.4,86.7,198.3,82.9z M93.4,81.4c2.3,0,27,0.5,45.6,18.8c13.7,13.5,20.9,33.4,21.6,58.8h-48.8
	c4.8-7.1,7.4-15.4,7.4-23.9c0.9-14.3-10-26.7-24.3-27.6c-14.3-0.9-26.7,10-27.6,24.3c-0.1,1.1-0.1,2.1,0,3.2c0,1.7,1.4,3.1,3.1,3.1
	c0,0,0,0,0,0c1.7-0.1,3-1.4,3.1-3.1c0-10.8,8.8-19.6,19.6-19.6c10.8,0,19.6,8.8,19.6,19.6c0,0,0,0,0,0c1.1,20.2-14.5,37.5-34.7,38.6
	s-37.5-14.5-38.6-34.7c-0.1-1.3-0.1-2.6,0-3.8C39.7,105.5,63.8,81.6,93.4,81.4z M227.6,130c1.3,8.7-9.9,21.9-17.3,30.8
	c-3.8,4.6-6.9,8.1-7.9,10.7c-1.1,2.2-1.1,4.9,0,7.1c1.4,2.6,3.4,4.8,5.9,6.4H16.8c6.9-5.1,18.8-10.2,34.9-14.5
	c17,11.9,40.1,9.7,54.7-5.1h57.3c1.7,0,3.1-1.4,3.1-3.1v0c0-2.1-0.1-4.3-0.3-6.4c10.9-1.5,19.3-10.9,27-19.3
	c11.2-12.7,18.6-19.9,30-12.2C225.8,125.4,227.3,127.5,227.6,130L227.6,130z M236.8,85.2c-3.9,0-7.1-3.2-7.1-7.1c0,0,0,0,0,0
	c0-3.9,3.2-7.2,7.1-7.2c3.9,0,7.2,3.2,7.2,7.2c0,3.9-3.2,7.1-7.1,7.1C236.9,85.2,236.8,85.2,236.8,85.2z"/>
</svg>
